<?xml version="1.0" encoding="UTF-8"?>
<svg id="Ebene_1" xmlns="http://www.w3.org/2000/svg" version="1.1" viewBox="0 0 92.5 8">
  <!-- Generator: Adobe Illustrator 29.3.1, SVG Export Plug-In . SVG Version: 2.1.0 Build 151)  -->
  <defs>
    <style>
      .st0 {
        fill: #ff005a;
      }
    </style>
  </defs>
  <path class="st0" d="M.3.3h2c.9,0,1.7.3,2.3.9s.9,1.4.9,2.5v.4c0,1-.3,1.9-.9,2.5-.6.6-1.4.9-2.3.9H.3V.3ZM2.4,6.8c.7,0,1.3-.2,1.7-.7.4-.5.6-1.1.6-2v-.4c0-.9-.2-1.5-.6-2s-1-.7-1.7-.7h-1.3v5.8h1.3Z"/>
  <path class="st0" d="M13,.3h4.4v.7h-3.6v2.5h3.1v.7h-3.1v2.7h3.6v.7h-4.4V.3Z"/>
  <path class="st0" d="M38.3,4h2.8v.7h-2.8v-.7Z"/>
  <path class="st0" d="M49,5.2h2.1v.2c0,.3,0,.5.2.6.2.1.4.2.7.2s.5,0,.7-.2.2-.2.2-.4,0-.4-.2-.5-.5-.2-1.2-.4c-.7-.2-1.3-.4-1.8-.8-.5-.4-.7-.9-.7-1.5,0-.7.3-1.2.8-1.6.5-.4,1.2-.6,2.1-.6s1.6.2,2.1.6c.5.4.8.9.8,1.6v.2h-2.1v-.2c0-.2,0-.4-.2-.5-.1-.1-.3-.2-.6-.2s-.5,0-.6.1c-.1,0-.2.2-.2.4s0,.3.2.4c.1,0,.5.2,1.2.3.7.2,1.3.4,1.8.8s.7.9.7,1.6c0,.8-.3,1.3-.8,1.7-.6.4-1.3.6-2.2.6s-1.6-.2-2.2-.5c-.6-.4-.9-.9-.9-1.7v-.2Z"/>
  <path class="st0" d="M63.2.3h2.1v7.1h-2.1V.3Z"/>
  <path class="st0" d="M73.3,3.7c0-1.2.3-2.1.9-2.6.6-.6,1.4-.9,2.5-.9s1.7.2,2.3.6.8,1,.8,1.7h0c0,0-2.1,0-2.1,0h0c0-.3,0-.6-.2-.7s-.4-.2-.8-.2-.6.1-.9.4-.3.7-.3,1.3v1.1c0,.7.1,1.1.4,1.3s.6.4,1,.4.4,0,.5,0c.1,0,.3-.1.4-.2v-.9h-1v-1.5h3v3c-.3.3-.7.5-1.1.8-.5.2-1.1.3-1.8.3-1.1,0-2-.3-2.6-.9-.6-.6-.9-1.4-.9-2.6v-.4Z"/>
  <path class="st0" d="M85.8.3h2.2l1.9,3.8c0,.1,0,.2.1.3s0,.2,0,.3h0c0-.1,0-.2,0-.3,0,0,0-.2,0-.3V.3h1.7v7.1h-2.3l-1.8-3.8c0-.1,0-.2-.1-.3,0,0,0-.2,0-.3h0c0,.1,0,.2,0,.3s0,.2,0,.3v3.7h-1.7V.3Z"/>
  <path class="st0" d="M30,5.5c0,.6-.2,1.1-.7,1.5-.5.4-1.1.6-1.8.6s-1.4-.2-1.8-.6c-.4-.4-.7-.8-.7-1.4s.2-1,.5-1.3c.3-.3.9-.6,1.7-.8.8-.2,1.3-.4,1.6-.6.3-.2.4-.5.4-.8s-.1-.7-.4-.9-.6-.3-1.2-.3-.9.1-1.2.4c-.3.3-.4.6-.4,1h0c0,0-.8,0-.8,0h0c0-.6.2-1.1.6-1.5s1-.6,1.7-.6,1.3.2,1.7.5.6.8.6,1.4-.2,1-.5,1.2-.9.6-1.7.8c-.8.2-1.3.4-1.6.6s-.4.5-.4.8.1.7.4.9c.3.2.7.4,1.3.4s1-.1,1.3-.4c.3-.2.5-.6.5-1h0c0,0,.8,0,.8,0h0Z"/>
</svg>